<svg width="100" height="100" viewBox="0 0 100 100" fill="none" xmlns="http://www.w3.org/2000/svg">
<circle cx="50" cy="50" r="50" fill="white"/>
<path d="M34.8145 68.4277C32.2754 68.4277 29.8991 68.0208 27.6855 67.207C25.472 66.377 23.5433 65.1807 21.8994 63.6182C20.2881 62.0882 19.0186 60.2002 18.0908 57.9541C17.1631 55.6917 16.6992 53.2096 16.6992 50.5078C16.6992 47.8223 17.1631 45.3402 18.0908 43.0615C19.0348 40.7666 20.3532 38.7809 22.0459 37.1045C23.7061 35.4606 25.6999 34.1911 28.0273 33.2959C30.3548 32.3844 32.8451 31.9287 35.498 31.9287C37.4186 31.9287 39.1683 32.1647 40.7471 32.6367C42.3258 33.0924 43.6605 33.6133 44.751 34.1992L46.2646 32.8564H48.3887L48.6084 45.5029H46.46C45.2393 41.6455 43.7744 38.8135 42.0654 37.0068C40.3564 35.2002 38.2731 34.2969 35.8154 34.2969C32.7555 34.2969 30.4281 35.6478 28.833 38.3496C27.238 41.0352 26.4404 44.8112 26.4404 49.6777C26.4404 52.4284 26.709 54.7803 27.2461 56.7334C27.7995 58.6702 28.5156 60.2327 29.3945 61.4209C30.3385 62.6579 31.4535 63.5693 32.7393 64.1553C34.0251 64.7249 35.4492 65.0098 37.0117 65.0098C39.2904 65.0098 41.3167 64.3913 43.0908 63.1543C44.8812 61.9173 46.5088 60.0456 47.9736 57.5391L50.0732 58.8086C49.3734 60.2409 48.5758 61.5267 47.6807 62.666C46.7855 63.7891 45.752 64.7575 44.5801 65.5713C43.2943 66.4665 41.8701 67.1663 40.3076 67.6709C38.7614 68.1755 36.9303 68.4277 34.8145 68.4277ZM85.0342 56.3916L84.3506 67.5H52.4414V65.5957C53.0111 65.5469 53.6784 65.4736 54.4434 65.376C55.2083 65.262 55.7129 65.1562 55.957 65.0586C56.543 64.8307 56.9499 64.5133 57.1777 64.1064C57.4056 63.6995 57.5195 63.1787 57.5195 62.5439V38.1055C57.5195 37.5195 57.43 37.0394 57.251 36.665C57.0719 36.2744 56.6406 35.9245 55.957 35.6152C55.4525 35.3874 54.8421 35.2083 54.126 35.0781C53.4261 34.9316 52.8646 34.8258 52.4414 34.7607V32.8564H71.46V34.7607C70.9391 34.8096 70.3206 34.8828 69.6045 34.9805C68.9046 35.0618 68.2943 35.1839 67.7734 35.3467C67.1387 35.5583 66.7155 35.8919 66.5039 36.3477C66.2923 36.7871 66.1865 37.2917 66.1865 37.8613V60.6396C66.1865 61.7139 66.2598 62.5602 66.4062 63.1787C66.5527 63.7972 66.8376 64.2529 67.2607 64.5459C67.6839 64.8551 68.2699 65.0586 69.0186 65.1562C69.7835 65.2376 70.8333 65.2783 72.168 65.2783C73.4701 65.2783 74.7314 65.2051 75.9521 65.0586C77.1891 64.8958 78.0762 64.554 78.6133 64.0332C79.4434 63.2031 80.2897 62.0394 81.1523 60.542C82.0312 59.0283 82.7311 57.6449 83.252 56.3916H85.0342Z" fill="#B66A1F"/>
</svg>
