<svg width="935" height="936" viewBox="0 0 935 936" fill="none" xmlns="http://www.w3.org/2000/svg">
<circle cx="467.506" cy="468.209" r="467.352" fill="black"/>
<circle cx="467.507" cy="468.208" r="284.396" fill="white"/>
<path d="M467.505 809.726C654.001 809.726 809.025 654.704 809.025 468.209C809.025 281.379 653.667 126.691 467.171 126.691C280.34 126.691 125.988 281.379 125.988 468.209C125.988 654.704 280.675 809.726 467.505 809.726ZM380.117 551.58C297.081 468.879 244.18 363.409 306.791 300.799C310.474 297.114 314.493 293.431 318.175 289.749C337.26 271.669 355.675 272.673 372.081 295.776L415.608 357.717C430.34 379.146 426.657 391.2 410.921 407.941L397.193 423.009C392.171 427.694 394.18 434.057 396.524 438.074C402.885 450.129 420.965 471.557 440.384 490.977C460.474 511.066 480.898 528.141 493.621 535.173C498.31 537.851 505.005 538.521 509.358 534.503L523.755 520.776C539.827 505.039 552.885 501.021 573.644 515.753C602.438 536.177 619.85 548.231 636.925 559.95C658.018 575.351 663.041 594.437 641.613 613.856C637.93 617.539 634.581 621.557 630.898 625.24C568.287 687.517 463.153 634.614 380.117 551.58Z" fill="black"/>
</svg>
